<svg width="354" height="300" viewBox="0 0 354 300" fill="none" xmlns="http://www.w3.org/2000/svg">
  <path d="M215.62 173.555C226.62 169.555 229.62 166.209 231.12 166.209C235.52 154.732 247.62 153.324 253.12 154.055C312.12 169.055 303.12 218.055 303.62 219.055C301.12 247.055 274.12 254.555 273.62 256.055C207.12 291.055 186.12 225.555 185.62 222.555C177.12 197.055 204.62 177.555 215.62 173.555Z" fill="#B82A33"/>
  <path d="M185.393 226.851C178.016 204.622 199.451 177.975 209.5 179.5C225.07 181.863 164 186.5 221.5 242.5C272.706 255.575 302.066 222.628 302.5 223.5C300.33 247.908 277.232 253.355 267.5 258.5C209.784 289.01 185.827 229.466 185.393 226.851Z" fill="#9C1017"/>
  <path d="M228.946 168.541C231 167.938 229.911 166 231 166C235 154.5 249.007 153.571 253 154C295.836 162.806 292.474 194.666 292.837 195.253C291.022 211.691 271.419 216.094 271.056 216.975C222.775 237.522 207.528 199.069 207.165 197.308C200.994 182.338 220.96 170.89 228.946 168.541Z" fill="#D7594C"/>
  <path d="M282.737 186.961C290.488 208.09 275.984 216.76 275.49 216.965C270.126 221.072 265.803 203.365 265.736 198.961C266.659 179.557 267.081 178.638 267.237 178.461C275.49 176.461 282.469 186.819 282.737 186.961Z" fill="#F4DBE2"/>
  <path d="M298.055 61C269.255 22.2 226.722 12.1667 209.055 12C207.222 12.8333 203.255 15.6 202.055 20C200.555 52.5 230.055 78 233.055 80C260.555 102 319.555 98 321.055 98C328.555 102.5 324.555 94 324.555 93.5C304.055 72.5 299.055 63 298.055 61Z" fill="#A0D16C"/>
  <path d="M232 24C273 59.5 269.255 22.2 298.055 61C299.055 63 304.055 72.5 324.555 93.5C324.555 94 328.555 102.5 321.055 98C319.555 98 260.555 102 233.055 80C233.02 79.9761 232.985 79.9539 232.953 79.9333C232.37 79.8035 232.252 79.4874 232.953 79.9333C234.592 80.2984 239.907 79.1892 241 55.5C242.2 51.1 230.167 24.8333 232 24Z" fill="#7CAE63"/>
  <path d="M233.055 80C260.555 102 319.555 98 321.055 98C262 89 205 71 209.055 12C209.193 9.99087 203.255 15.6 202.055 20C200.555 52.5 230.055 78 233.055 80Z" fill="#588044"/>
  <path d="M126.12 165.555C123.453 166.222 118.12 168.055 118.12 170.055C122.62 178.055 142.12 175.555 140.62 173.055C139.12 170.555 136.62 170.055 137.62 167.555C138.62 165.055 167.12 82.0549 169.12 75.0549C171.12 68.0549 176.62 32.5549 179.62 25.0549C182.62 17.5549 193.62 17.5549 195.62 19.5549C198.62 27.5549 195.62 61.0549 198.62 96.0549C201.62 131.055 214.62 168.555 217.62 173.055C220.62 177.555 236.12 168.055 229.62 165.555C223.12 163.055 210.62 126.555 205.12 96.0549C199.62 65.5549 201.62 24.5549 203.12 19.5549C204.62 14.5549 216.12 14.5549 217.62 11.5549C219.12 8.55491 216.62 4.05492 215.12 2.55492C213.62 1.05492 210.62 2.55492 195.62 7.55492C180.62 12.5549 166.12 13.0549 170.12 14.5549C174.62 16.5549 173.62 29.5549 172.62 32.5549C168.12 67.0549 131.62 156.055 126.12 165.555Z" fill="#493333"/>
  <path d="M75.125 180.709C92.62 159.594 115.12 169.555 126.12 170.555C177.12 178.055 171.12 220.055 171.12 221.055C164.62 296.555 93.62 267.055 92.62 266.555C30.62 235.555 60.625 198.209 75.125 180.709Z" fill="#B82A33"/>
  <path d="M98.8772 188.395C111.81 173.558 128.443 180.557 136.574 181.26C174.275 186.53 169.839 216.045 169.839 216.747C165.034 269.803 123 257 111.81 248.721C71.0148 218.54 88.1584 200.693 98.8772 188.395Z" fill="#D0354C"/>
  <path d="M115.206 196.769C118.381 185.271 128.923 185.522 133.404 184.077C154.677 178.538 159.638 196.563 159.812 196.968C170.41 228.651 137.478 228.642 136.999 228.607C107.329 226.476 112.576 206.298 115.206 196.769Z" fill="#DA597A"/>
  <path d="M73.0002 184.5C89.1212 165.036 59.1234 219.882 63.2465 229.693C60.0001 237.5 106.835 273.613 90.0001 265C33.1317 235.906 59.639 200.632 73.0002 184.5Z" fill="#D23D55"/>
  <path d="M74.9999 181C91.9999 160.513 113.765 168.978 123.599 169.871C16.9999 203 141.5 286.5 96.9998 265C41.2202 238.05 62.0376 196.621 74.9999 181Z" fill="#901018"/>
  <path d="M130.607 189.944C133.224 186.874 136.59 188.322 138.236 188.468C145.865 189.558 144.967 195.664 144.967 195.81C143.995 206.786 135.489 204.137 133.224 202.425C124.969 196.181 128.438 192.488 130.607 189.944Z" fill="#EAB2C9"/>
  <g filter="url(#filter0_b)">
    <path d="M247.321 184.421H107.321V298.421H247.321V184.421Z" fill="white" fill-opacity="0.18"/>
  </g>
  <path fill-rule="evenodd" clip-rule="evenodd" d="M105 182H249V300H105V182ZM110 186.982V295.588H244V186.982H110Z" fill="#303030"/>
  <path d="M142.302 223.081H133.816V246.533H130.352V223.081H121.884V220.226H142.302V223.081Z" fill="#303030"/>
  <path d="M159.348 239.668H148.286L145.802 246.533H142.211L152.294 220.226H155.34L165.441 246.533H161.868L159.348 239.668ZM149.338 236.813H158.314L153.817 224.509L149.338 236.813Z" fill="#303030"/>
  <path d="M176.774 234.807C173.788 233.952 171.612 232.904 170.246 231.663C168.892 230.411 168.215 228.869 168.215 227.038C168.215 224.966 169.043 223.256 170.699 221.907C172.368 220.546 174.531 219.865 177.191 219.865C179.004 219.865 180.618 220.214 182.033 220.913C183.459 221.612 184.559 222.575 185.333 223.804C186.119 225.033 186.512 226.376 186.512 227.833H183.012C183.012 226.243 182.504 224.996 181.489 224.093C180.473 223.178 179.041 222.72 177.191 222.72C175.474 222.72 174.133 223.099 173.165 223.858C172.21 224.605 171.733 225.647 171.733 226.984C171.733 228.056 172.186 228.965 173.093 229.712C174.012 230.447 175.565 231.121 177.753 231.736C179.953 232.35 181.67 233.031 182.903 233.777C184.148 234.512 185.067 235.373 185.659 236.361C186.264 237.349 186.566 238.511 186.566 239.848C186.566 241.98 185.732 243.691 184.064 244.98C182.395 246.256 180.165 246.895 177.372 246.895C175.559 246.895 173.867 246.551 172.295 245.865C170.723 245.166 169.508 244.215 168.65 243.01C167.804 241.806 167.381 240.438 167.381 238.909H170.881C170.881 240.499 171.467 241.757 172.64 242.685C173.824 243.6 175.402 244.058 177.372 244.058C179.21 244.058 180.618 243.685 181.597 242.938C182.577 242.191 183.066 241.173 183.066 239.884C183.066 238.596 182.613 237.602 181.706 236.903C180.8 236.192 179.156 235.494 176.774 234.807Z" fill="#303030"/>
  <path d="M209.287 223.081H200.801V246.533H197.337V223.081H188.869V220.226H209.287V223.081Z" fill="#303030"/>
  <path d="M221.546 233.434L228.436 220.226H232.389L223.286 236.722V246.533H219.805V236.722L210.702 220.226H214.691L221.546 233.434Z" fill="#303030"/>
  <path d="M133.006 283.836H128.852V288.193H127.546V278.328H133.68V279.398H128.852V282.772H133.006V283.836Z" fill="#303030"/>
  <path d="M140.964 284.202H138.638V288.193H137.326V278.328H140.603C141.719 278.328 142.575 278.581 143.174 279.087C143.777 279.592 144.078 280.329 144.078 281.295C144.078 281.91 143.91 282.445 143.575 282.901C143.244 283.357 142.782 283.698 142.188 283.924L144.513 288.112V288.193H143.113L140.964 284.202ZM138.638 283.138H140.644C141.292 283.138 141.807 282.971 142.188 282.637C142.573 282.303 142.766 281.855 142.766 281.295C142.766 280.686 142.582 280.218 142.215 279.893C141.852 279.568 141.326 279.403 140.637 279.398H138.638V283.138Z" fill="#303030"/>
  <path d="M153.47 285.618H149.322L148.391 288.193H147.044L150.825 278.328H151.968L155.755 288.193H154.416L153.47 285.618ZM149.717 284.548H153.083L151.396 279.934L149.717 284.548Z" fill="#303030"/>
  <path d="M160.864 278.328L164.1 286.377L167.337 278.328H169.03V288.193H167.725V284.351L167.847 280.205L164.597 288.193H163.597L160.354 280.225L160.483 284.351V288.193H159.177V278.328H160.864Z" fill="#303030"/>
  <path d="M179.021 283.633H174.73V287.129H179.715V288.193H173.425V278.328H179.647V279.398H174.73V282.569H179.021V283.633Z" fill="#303030"/>
  <path d="M185.564 285.083L185.755 286.384L186.033 285.212L187.992 278.328H189.093L191.004 285.212L191.276 286.404L191.487 285.076L193.024 278.328H194.336L191.936 288.193H190.746L188.706 281.004L188.549 280.252L188.393 281.004L186.278 288.193H185.088L182.694 278.328H184L185.564 285.083Z" fill="#303030"/>
  <path d="M205.497 283.579C205.497 284.545 205.333 285.39 205.007 286.113C204.68 286.831 204.218 287.38 203.62 287.759C203.021 288.139 202.323 288.328 201.525 288.328C200.746 288.328 200.054 288.139 199.451 287.759C198.848 287.375 198.379 286.831 198.044 286.126C197.713 285.417 197.543 284.597 197.534 283.667V282.955C197.534 282.007 197.699 281.169 198.03 280.442C198.361 279.714 198.828 279.159 199.431 278.775C200.038 278.386 200.732 278.192 201.512 278.192C202.305 278.192 203.003 278.384 203.606 278.768C204.214 279.148 204.68 279.701 205.007 280.428C205.333 281.151 205.497 281.993 205.497 282.955V283.579ZM204.198 282.942C204.198 281.772 203.962 280.875 203.49 280.252C203.019 279.624 202.359 279.31 201.512 279.31C200.687 279.31 200.036 279.624 199.56 280.252C199.089 280.875 198.846 281.743 198.832 282.854V283.579C198.832 284.712 199.07 285.605 199.546 286.255C200.027 286.901 200.687 287.224 201.525 287.224C202.368 287.224 203.021 286.919 203.484 286.309C203.946 285.695 204.184 284.816 204.198 283.674V282.942Z" fill="#303030"/>
  <path d="M213.175 284.202H210.85V288.193H209.537V278.328H212.815C213.93 278.328 214.787 278.581 215.385 279.087C215.988 279.592 216.29 280.329 216.29 281.295C216.29 281.91 216.122 282.445 215.786 282.901C215.455 283.357 214.993 283.698 214.399 283.924L216.725 288.112V288.193H215.324L213.175 284.202ZM210.85 283.138H212.856C213.504 283.138 214.018 282.971 214.399 282.637C214.784 282.303 214.977 281.855 214.977 281.295C214.977 280.686 214.794 280.218 214.426 279.893C214.064 279.568 213.538 279.403 212.849 279.398H210.85V283.138Z" fill="#303030"/>
  <path d="M222.731 283.606L221.52 284.859V288.193H220.215V278.328H221.52V283.206L225.92 278.328H227.497L223.601 282.684L227.803 288.193H226.239L222.731 283.606Z" fill="#303030"/>
  <path d="M209.5 4C207.1 5.2 183.833 11.5 172.5 14.5C174.143 19.0189 176.124 18.4749 180.383 17.3051C181.308 17.0511 182.34 16.7676 183.5 16.5C190 15 215 7.5 215 6C215 4.5 212.5 2.5 209.5 4Z" fill="#876245"/>
  <path d="M219.5 170.5C201.5 142.5 198 86.1667 198.5 61.5C213.3 173.1 227 167 227 167C228 169.5 222.071 174.5 219.5 170.5Z" fill="#876245"/>
  <path d="M128 166C139.667 135.167 163.4 72.3 165 67.5C167 61.5 136.5 166.5 134.5 169C132.5 171.5 124 170.5 128 166Z" fill="#876245"/>
  <defs>
    <filter id="filter0_b" x="106.393" y="183.492" width="141.857" height="115.857" filterUnits="userSpaceOnUse" color-interpolation-filters="sRGB">
      <feFlood flood-opacity="0" result="BackgroundImageFix"/>
      <feGaussianBlur in="BackgroundImage" stdDeviation="0.464218"/>
      <feComposite in2="SourceAlpha" operator="in" result="effect1_backgroundBlur"/>
      <feBlend mode="normal" in="SourceGraphic" in2="effect1_backgroundBlur" result="shape"/>
    </filter>
  </defs>
</svg>
