<svg width="180" height="180" viewBox="0 0 180 180" fill="none" xmlns="http://www.w3.org/2000/svg">
  <path fill-rule="evenodd" clip-rule="evenodd" d="M91.0735 114.039L47.0888 70.054L58.2096 58.9332L90.3751 68.4297L80.8786 36.2642L91.6974 25.4454L135.836 69.2952L125.249 79.8824L101.173 55.8066L107.903 78.2382L99.8606 86.2806L77.8343 79.3099L101.829 103.304L91.0735 114.039Z" fill="black"/>
  <path fill-rule="evenodd" clip-rule="evenodd" d="M88.5578 154.555L25 90.9838L35.7615 80.2223L89.8019 134.323L107.526 116.599L117.02 126.092L88.5578 154.555Z" fill="black"/>
  <path fill-rule="evenodd" clip-rule="evenodd" d="M120.818 122.294L113.538 115.014L111.006 117.547L108.791 115.331L116.703 107.418L118.919 109.634L116.387 112.166L123.666 119.446L120.818 122.294ZM128.19 114.98L118.666 105.456L125.249 98.8725L127.465 101.088L123.35 105.203L124.616 106.469L128.098 102.986L130.313 105.201L126.831 108.684L128.444 110.296L132.591 106.149L134.806 108.365L128.19 114.98ZM139.007 104.183L139.006 104.183C138.246 104.505 137.452 104.659 136.627 104.645L136.624 104.645C135.782 104.626 134.924 104.397 134.054 103.973L134.051 103.972C133.182 103.542 132.348 102.922 131.549 102.123C130.754 101.328 130.137 100.497 129.707 99.6271L129.705 99.6246C129.282 98.7558 129.051 97.9009 129.027 97.0634C129.004 96.238 129.151 95.4447 129.469 94.6879C129.786 93.9227 130.262 93.2264 130.89 92.5987C131.38 92.1085 131.91 91.7156 132.481 91.4252C133.04 91.1343 133.598 90.9477 134.153 90.8753C134.69 90.8052 135.213 90.816 135.718 90.9109C136.221 90.9967 136.69 91.1592 137.123 91.3996L137.51 91.6148L135.79 94.7858L135.419 94.6352C134.986 94.4592 134.614 94.417 134.292 94.4752C133.973 94.5329 133.664 94.6963 133.364 94.9958C132.806 95.5546 132.6 96.1656 132.702 96.8628C132.807 97.5716 133.294 98.4155 134.275 99.3965C135.254 100.375 136.1 100.858 136.815 100.956C137.523 101.044 138.144 100.827 138.708 100.262C139.005 99.9659 139.167 99.6583 139.224 99.3374C139.281 99.0137 139.239 98.6388 139.062 98.2001L138.913 97.8302L142.089 96.1031L142.305 96.4909C142.545 96.9241 142.71 97.3956 142.8 97.9024C142.89 98.4024 142.901 98.9233 142.836 99.4629L142.835 99.4672C142.763 100.022 142.576 100.584 142.286 101.151L142.285 101.154C141.99 101.72 141.595 102.247 141.106 102.737C140.47 103.372 139.771 103.856 139.007 104.183ZM146.455 96.657L136.96 87.1618L139.808 84.3133L143.29 87.7948L146.141 84.9438L142.659 81.4622L145.505 78.6162L155.001 88.1113L152.154 90.9574L148.356 87.1594L145.505 90.0104L149.303 93.8085L146.455 96.657Z" fill="#5AB031"/>
  <path d="M77.4563 39.6861L61.3145 55.8279L81.8873 59.9424L77.4563 39.6861Z" fill="#5AB031"/>
</svg>
