<svg width="180" height="180" viewBox="0 0 180 180" fill="none" xmlns="http://www.w3.org/2000/svg">
  <path d="M18.627 143.994H160.512L89.9457 73.5267L18.627 143.994Z" fill="#7BB51C"/>
  <path d="M15.9139 140.529L26.968 129.76L23.2861 125.989L16.3431 132.756L4.11214 120.233L0 124.239L15.9139 140.529Z" fill="black"/>
  <path d="M29.3943 127.307L40.7209 116.269L37.6104 113.088L30.4185 120.094L26.965 116.558L32.7281 110.943L29.4732 107.614L23.7101 113.226L20.7512 110.197L27.7065 103.419L24.598 100.238L13.3073 111.239L29.3943 127.307Z" fill="black"/>
  <path d="M66.4671 74.9811C61.8992 70.3049 53.975 70.8644 50.1589 74.5832C46.3417 78.302 44.3937 85.7171 49.784 91.235C55.7049 97.2949 62.7493 95.0939 66.5665 91.3772C72.1944 85.8941 70.1911 78.793 66.4671 74.9811ZM63.1098 88.1749C60.5831 90.6367 57.4941 89.9688 53.9648 86.3553C50.9987 83.3197 51.1769 80.2698 53.3339 78.168C54.8169 76.7229 57.8291 75.4301 61.4127 79.0988C65.5013 83.284 65.6365 85.713 63.1098 88.1749Z" fill="black"/>
  <path d="M79.207 78.8645L83.3857 74.7919L77.0992 68.3576L73.3364 52.7235L68.5462 57.3914L71.0381 66.2609L62.6192 63.165L58.1025 67.5649L72.4556 72.1674L79.207 78.8645Z" fill="black"/>
  <path d="M56.9267 100.596C56.9267 100.596 46.7565 97.1313 46.2731 97.2152C46.1164 97.2407 48.4577 91.0192 43.1974 88.2618C43.1974 88.2618 39.2942 86.1518 35.3879 89.6957L27.0623 97.8892L43.1124 114.031L47.3587 109.893L38.6735 101.006L52.7132 104.702L56.9267 100.596ZM41.1746 98.3801C38.8149 100.675 38.4964 100.856 38.4964 100.856C38.4964 100.856 34.797 97.0699 34.6659 96.9359C34.5348 96.802 37.3114 94.425 37.7487 93.9985C37.9341 93.8175 39.6629 92.6914 41.0937 94.155C41.0937 94.155 43.5333 96.0809 41.1746 98.3801Z" fill="black"/>
  <path d="M77.9104 55.8041L74.1967 52.0648L90.4097 36.0062L95.716 41.3482L89.875 52.8278L101.783 47.4572L106.889 52.5987L90.676 68.6573L86.7625 64.7175L95.3207 56.2418L83.6131 61.5459L81.1929 59.1086L86.6345 47.4286L77.9104 55.8041Z" fill="black"/>
  <path d="M106.061 84.1472L94.8199 72.8302L111.034 56.7716L122.307 68.1224L119.032 71.3666L111.969 64.2563L109.328 66.8715L114.898 72.4804L111.488 75.8576L105.951 70.2825L102.407 73.7916L109.403 80.8354L106.061 84.1472Z" fill="black"/>
  <path d="M143.13 89.0872L147.308 93.2949L135.039 105.445L141.902 112.353L137.957 116.263L126.916 105.147L143.13 89.0872Z" fill="black"/>
  <path d="M140.875 119.202L157.089 103.143L161.167 107.249L144.953 123.306L140.875 119.202Z" fill="black"/>
  <path d="M152.347 130.754L148.533 126.913L164.748 110.856L170.286 116.428L165.554 133.101L176.286 122.471L180 126.21L163.787 142.267L158.945 137.395L163.114 119.891L152.347 130.754Z" fill="black"/>
  <path d="M135.803 81.7099L125.955 71.7941L109.708 87.82L113.885 92.0256L122.744 83.2522L119.555 97.7347L123.832 102.042C123.832 102.042 127.204 91.682 127.307 91.2503C127.307 91.2503 130.961 93.2601 134.969 89.8185C134.969 89.8185 138.814 86.0771 135.803 81.7099ZM129.79 86.4065C129.79 86.4065 127.72 87.7944 125.896 85.9585L123.047 82.9536C123.047 82.9536 126.489 79.5437 126.923 79.1131C126.923 79.1131 129.576 81.7846 129.908 82.118C130.239 82.4514 132.33 84.0224 129.79 86.4065Z" fill="black"/>
</svg>
